<?xml version="1.0" standalone="no"?>
<!DOCTYPE svg PUBLIC "-//W3C//DTD SVG 20010904//EN"
 "http://www.w3.org/TR/2001/REC-SVG-20010904/DTD/svg10.dtd">
<svg version="1.0" xmlns="http://www.w3.org/2000/svg"
 width="192.000000pt" height="192.000000pt" viewBox="0 0 192.000000 192.000000"
 preserveAspectRatio="xMidYMid meet">

<g transform="translate(0.000000,192.000000) scale(0.100000,-0.100000)"
fill="#000000" stroke="none">
<path d="M630 1821 c-30 -4 -66 -14 -78 -22 -47 -28 -184 -231 -265 -389 -39
-77 -75 -132 -111 -170 -74 -78 -88 -108 -94 -214 -5 -86 11 -286 29 -355 7
-27 5 -39 -8 -53 -13 -15 -14 -23 -5 -43 l12 -25 847 0 c467 0 853 4 859 8 17
11 22 35 12 54 -6 14 -21 18 -59 18 -45 0 -50 2 -44 18 4 9 12 42 18 73 10 52
14 58 53 79 39 20 43 26 50 73 16 108 0 409 -32 607 -23 138 -54 273 -68 287
-6 7 -87 22 -181 34 -139 17 -235 22 -525 24 -195 2 -380 0 -410 -4z m805 -50
c55 -6 141 -16 192 -22 l92 -12 15 -66 c31 -143 31 -132 -1 -121 -37 12 -271
30 -389 30 -111 0 -104 13 -74 -154 33 -175 -1 -156 283 -156 l244 0 7 -61 c3
-34 6 -100 6 -145 l0 -84 -31 0 c-23 0 -39 9 -62 35 -17 19 -37 35 -45 35 -8
0 -28 -15 -46 -34 l-31 -35 -256 -7 c-255 -7 -257 -7 -263 14 -10 29 -61 82
-79 82 -21 0 -74 -46 -89 -78 -15 -31 -56 -40 -203 -41 l-90 -1 -30 -58 -30
-57 -146 -3 c-164 -3 -167 -2 -191 73 -12 37 -16 40 -55 43 -35 3 -43 7 -43
23 0 15 7 19 31 19 31 0 32 0 25 43 -4 23 -14 55 -22 71 -16 33 -17 32 65 119
l45 47 337 0 c257 0 339 3 346 13 13 15 93 257 93 279 0 25 -113 32 -377 23
-166 -5 -224 -4 -222 4 8 23 113 159 133 172 12 7 59 16 106 20 114 10 630 2
755 -10z m-393 -792 c10 -13 22 -39 27 -57 l10 -33 -30 26 c-17 14 -43 28 -57
31 -15 3 -31 7 -37 8 -5 1 3 15 18 30 31 31 43 30 69 -5z m675 2 c10 -15 43
-137 43 -157 0 -2 -4 -4 -9 -4 -5 0 -12 16 -15 35 -9 44 -49 93 -82 97 -23 3
-24 4 -9 26 20 27 56 29 72 3z m-684 -108 c9 -9 24 -40 33 -69 19 -65 7 -119
-36 -167 -26 -30 -33 -32 -90 -32 -59 1 -64 3 -96 38 -39 42 -43 57 -15 57 26
0 31 9 61 105 19 59 32 83 49 92 27 13 63 3 94 -24z m651 -1 c22 -43 28 -104
16 -157 -15 -65 -34 -85 -81 -85 -32 0 -41 5 -54 30 -18 35 -19 67 -3 72 7 3
20 40 28 83 13 70 18 80 40 86 31 7 37 4 54 -29z m-172 -189 l14 -48 -215 -3
c-117 -1 -216 -1 -218 1 -1 2 3 21 10 43 l14 39 74 6 c41 3 127 6 191 7 l117
2 13 -47z m-1264 -13 c7 -11 23 -20 37 -20 14 0 34 9 45 20 11 11 33 20 50 20
30 0 30 0 14 -26 -25 -37 -66 -54 -129 -54 -49 0 -60 4 -86 29 -40 40 -37 51
14 51 31 0 45 -5 55 -20z m529 -10 l11 -30 -179 0 c-98 0 -179 2 -179 5 0 2 5
16 12 30 l11 25 156 0 157 0 11 -30z"/>
<path d="M1076 1563 c-2 -10 -14 -70 -25 -133 -12 -63 -24 -125 -26 -137 -5
-23 -5 -23 113 -23 l119 0 -13 88 c-8 48 -19 117 -25 155 l-11 67 -63 0 c-52
0 -65 -3 -69 -17z"/>
<path d="M742 1119 c-60 -30 -114 -115 -84 -132 4 -2 35 -1 70 3 43 6 71 15
86 29 25 23 51 95 41 111 -10 17 -68 11 -113 -11z"/>
<path d="M245 1046 c-18 -13 -18 -15 -1 -77 30 -105 20 -99 160 -99 l123 0 37
80 c53 111 54 110 -143 110 -117 0 -162 -3 -176 -14z"/>
<path d="M925 825 c-50 -49 -22 -175 39 -175 65 0 90 126 36 180 -26 26 -46
25 -75 -5z"/>
<path d="M1639 838 c-25 -47 -9 -178 22 -178 16 0 29 48 29 106 0 83 -26 119
-51 72z"/>
<path d="M450 262 c0 -142 5 -162 42 -162 22 0 24 26 3 34 -12 4 -15 29 -15
136 0 109 -2 130 -15 130 -13 0 -15 -22 -15 -138z"/>
<path d="M200 235 c0 -128 1 -135 20 -135 18 0 20 7 20 60 l0 60 50 0 c38 0
50 4 50 15 0 11 -12 15 -50 15 l-50 0 0 45 0 45 60 0 c47 0 60 3 60 15 0 12
-16 15 -80 15 l-80 0 0 -135z"/>
<path d="M955 343 c3 -15 25 -76 48 -135 60 -155 67 -152 142 65 32 90 33 97
15 97 -15 0 -26 -22 -55 -111 -21 -61 -41 -107 -45 -102 -4 4 -23 54 -41 111
-27 82 -37 102 -52 102 -16 0 -18 -5 -12 -27z"/>
<path d="M1288 303 c-10 -2 -18 -11 -18 -20 0 -11 7 -13 29 -8 22 5 35 1 50
-14 31 -31 26 -41 -19 -41 -46 0 -80 -27 -80 -62 0 -47 41 -70 109 -61 l41 6
0 77 c0 59 -4 83 -17 99 -18 21 -64 33 -95 24z m82 -143 c0 -34 -17 -45 -54
-36 -54 13 -38 66 20 66 31 0 34 -3 34 -30z"/>
<path d="M1543 303 l-33 -4 0 -100 c0 -81 3 -99 15 -99 12 0 15 16 15 85 l0
85 35 0 c44 0 55 -20 55 -104 0 -52 3 -66 15 -66 12 0 15 15 15 79 0 108 -25
134 -117 124z"/>
<path d="M586 273 c4 -16 20 -60 36 -100 18 -43 27 -80 23 -92 -6 -21 -38 -36
-54 -27 -5 3 -11 -1 -14 -8 -7 -19 20 -25 55 -13 34 11 61 65 98 199 18 64 18
68 1 68 -13 0 -21 -18 -36 -76 -10 -41 -22 -77 -25 -79 -4 -3 -18 31 -31 75
-18 61 -28 80 -42 80 -14 0 -16 -5 -11 -27z"/>
</g>
</svg>
